<svg id="Capa_1" enable-background="new 0 0 512 512" height="512" viewBox="0 0 512 512" width="512" xmlns="http://www.w3.org/2000/svg"><g><ellipse cx="55.446" cy="293.991" fill="#ffbda9" rx="55.446" ry="55.473"/><ellipse cx="456.554" cy="293.991" fill="#ffa68c" rx="55.446" ry="55.473"/><path d="m473.89 293.995c0 120.398-97.55 218.005-217.89 218.005s-217.89-97.607-217.89-218.005c0-120.388 97.55-217.995 217.89-217.995s217.89 97.607 217.89 217.995z" fill="#ffccbd"/><path d="m473.89 293.995c0 120.398-97.55 218.005-217.89 218.005v-436c120.34 0 217.89 97.607 217.89 217.995z" fill="#ffbda9"/><path d="m319.61 412.032c-15.58 19.389-38.77 30.515-63.61 30.515s-48.03-11.125-63.62-30.515c-5.19-6.463-4.16-15.908 2.29-21.1 6.46-5.192 15.9-4.172 21.09 2.291 9.86 12.266 24.53 19.309 40.24 19.309s30.37-7.043 40.23-19.309c5.18-6.453 14.63-7.484 21.08-2.291 6.46 5.192 7.49 14.637 2.3 21.1z" fill="#ff637b"/><path d="m319.61 412.032c-15.58 19.389-38.77 30.515-63.61 30.515v-30.014c15.71 0 30.37-7.043 40.23-19.309 5.18-6.453 14.63-7.484 21.08-2.291 6.46 5.191 7.49 14.636 2.3 21.099z" fill="#ff3f5c"/><path d="m214.814 285.016c-5.86-5.853-15.36-5.843-21.21.03-6.4 6.413-12.59 9.595-18.44 9.385-8.67-.28-15.6-7.484-16.5-8.444l-.05-.06c-5.7-6.994-15.49-7.304-21.66-1.821-6.2 5.523-6.75 14.997-1.25 21.2 8.7 10.324 24.022 19.139 39.9 19.139 10.05 0 24.45-3.372 39.24-18.199 5.85-5.873 5.84-15.367-.03-21.23z" fill="#c76e59"/><path d="m375.047 284.106c-6.17-5.483-15.96-5.173-21.66 1.821l-.05.06c-.9.96-7.83 8.164-16.5 8.444-5.85.21-12.04-2.972-18.44-9.385-5.85-5.873-15.35-5.883-21.21-.03-5.87 5.863-5.88 15.358-.03 21.23 14.79 14.827 29.19 18.199 39.24 18.199 15.981 0 31.298-8.931 39.9-19.139 5.5-6.203 4.95-15.678-1.25-21.2z" fill="#b95d4c"/><path d="m239.82 77.21v62.4c0 3.382-1.14 6.663-3.24 9.315-.67.84-16.61 20.76-46.49 39.649-38.177 24.119-83.493 36.611-131.99 33.726-6.22-.38-11.56-4.562-13.42-10.515-10.063-32.243-16.843-62.839-16.47-103.38 0-.34 0-.69.01-1.031.41-32.976 5.98-65.522 16.57-96.757 1.96-5.773 7.22-9.795 13.31-10.155 113.22-6.822 175.49 63.942 178.09 66.964 2.34 2.721 3.63 6.193 3.63 9.784z" fill="#ff8496"/><path d="m483.79 108.405v.01c.364 40.027-6.326 71.089-16.49 103.42-1.87 5.933-7.21 10.085-13.41 10.465-48.544 2.888-93.846-9.634-131.98-33.726-29.88-18.889-45.82-38.809-46.49-39.649-2.09-2.651-3.24-5.933-3.24-9.315v-62.4c0-3.592 1.29-7.063 3.64-9.785 2.59-3.021 64.84-73.776 178.07-66.962 6.1.37 11.37 4.402 13.32 10.195l.33 1c10.49 31.256 15.95 63.792 16.25 96.747z" fill="#ff637b"/><path d="m224.814 126.376h-106.054c-8.284 0-15-6.719-15-15.007s6.716-15.007 15-15.007h106.055c8.284 0 15 6.719 15 15.007s-6.717 15.007-15.001 15.007z" fill="#ff3f5c"/><path d="m393.238 126.376h-106.055c-8.284 0-15-6.719-15-15.007s6.716-15.007 15-15.007h106.055c8.284 0 15 6.719 15 15.007s-6.716 15.007-15 15.007z" fill="#ff193d"/><path d="m302.18 77.21v62.4c0 8.28-6.71 15.01-15 15.01h-62.36c-8.29 0-15-6.73-15-15.01v-62.4c0-8.28 6.71-15.01 15-15.01h62.36c8.29 0 15 6.73 15 15.01z" fill="#ff637b"/><path d="m302.18 77.21v62.4c0 8.28-6.71 15.01-15 15.01h-31.19v-92.42h31.19c8.29 0 15 6.73 15 15.01z" fill="#ff3f5c"/></g></svg>